<?xml version="1.0" standalone="yes"?>
<svg xmlns="http://www.w3.org/2000/svg" width="64" height="64">
<path style="fill:#536a71; stroke:none;" d="M0 0L0 23L1 23L3 17L1 18L1 17L3 13L7 11L5 12L5 11L12 5L11 7L23 1L0 0z"/>
<path style="fill:#9173c1; stroke:none;" d="M18 0L19 1L18 0z"/>
<path style="fill:#eef0f2; stroke:none;" d="M19 0L20 1L19 0M11 7L12 5L11 5L9 10L5 12L7 11L1 18L3 17C-3.40597 29.2211 -2.66242 57.0063 15 59L13 61L20 64L20 63L18 63L18 62L45 64L44 62L45 62L51 61L49 59C52.7795 58.6015 55.1052 58.1697 55 54L58 55L59 50C64.9032 47.9749 63.9416 40.2999 63.9961 35C64.1152 23.4289 64.0181 6.69522 49 5L51 3L44 0L44 1L46 1C32.4657 1.41977 22.8883 -2.06322 11 7z"/>
<path style="fill:#536a71; stroke:none;" d="M41 0L41 1L46 2L46 1L41 0M46 0L46 1L51 3L49 5C55.8335 6.8139 59.9167 11.8128 63 18L64 18L64 0L46 0z"/>
<path style="fill:#eef0f2; stroke:none;" d="M12 4L12 5L18 2L12 4z"/>
<path style="fill:#8e9091; stroke:none;" d="M43 1L44 2L43 1z"/>
<path style="fill:#536a71; stroke:none;" d="M46 2L46 3L49 4L46 2z"/>
<path style="fill:#8e9091; stroke:none;" d="M51 4L52 5L51 4M32 6L16 33C27.7238 26.8327 38.603 21.7358 32 6z"/>
<path style="fill:#536a71; stroke:none;" d="M33 6L34 7L33 6M52 6L53 7L52 6z"/>
<path style="fill:#282929; stroke:none;" d="M33 7C33 22.118 31.6467 26.3175 17 32L17 33L33 40.8634L49 33L33 7z"/>
<path style="fill:#8e9091; stroke:none;" d="M34 7L35 8L34 7z"/>
<path style="fill:#9173c1; stroke:none;" d="M53 7L54 8L53 7z"/>
<path style="fill:#8e9091; stroke:none;" d="M9 8L10 9L9 8M54 8L55 9L54 8z"/>
<path style="fill:#9173c1; stroke:none;" d="M7 9L8 10L7 9z"/>
<path style="fill:#8e9091; stroke:none;" d="M8 9L9 10L8 9M35 9L36 10L35 9z"/>
<path style="fill:#536a71; stroke:none;" d="M36 11L37 12L36 11M57 11L60 14L57 11z"/>
<path style="fill:#eef0f2; stroke:none;" d="M4 12L5 13L4 12z"/>
<path style="fill:#8e9091; stroke:none;" d="M37 12L38 13L37 12M3 13L4 14L3 13z"/>
<path style="fill:#536a71; stroke:none;" d="M38 14L39 15L38 14M3 15L4 16L3 15M60 15L61 16L60 15M39 16L40 17L39 16z"/>
<path style="fill:#8e9091; stroke:none;" d="M40 17L41 18L40 17z"/>
<path style="fill:#536a71; stroke:none;" d="M61 17L62 20L63 20L61 17z"/>
<path style="fill:#eef0f2; stroke:none;" d="M0.333333 18.6667L0.666667 19.3333L0.333333 18.6667z"/>
<path style="fill:#536a71; stroke:none;" d="M41 19L42 20L41 19z"/>
<path style="fill:#8e9091; stroke:none;" d="M42 20L43 21L42 20z"/>
<path style="fill:#536a71; stroke:none;" d="M42 21L43 22L42 21M63.3333 21.6667L63.6667 22.3333L63.3333 21.6667z"/>
<path style="fill:#8e9091; stroke:none;" d="M43 22L44 23L43 22z"/>
<path style="fill:#536a71; stroke:none;" d="M44 24L45 25L44 24M31 25L32 26L31 25z"/>
<path style="fill:#8e9091; stroke:none;" d="M45 25L46 26L45 25z"/>
<path style="fill:#536a71; stroke:none;" d="M29 26L30 27L29 26M27 27L28 28L27 27z"/>
<path style="fill:#8e9091; stroke:none;" d="M46 27L47 28L46 27z"/>
<path style="fill:#536a71; stroke:none;" d="M24.6667 28.3333L25.3333 28.6667L24.6667 28.3333M22.6667 29.3333L23.3333 29.6667L22.6667 29.3333M47 29L48 30L47 29M20 30L21 31L20 30z"/>
<path style="fill:#8e9091; stroke:none;" d="M48 30L49 31L48 30z"/>
<path style="fill:#536a71; stroke:none;" d="M18 31L19 32L18 31z"/>
<path style="fill:#8e9091; stroke:none;" d="M49 32L50 33L49 32z"/>
<path style="fill:#536a71; stroke:none;" d="M18 33L19 34L18 33M47 33L48 34L47 33z"/>
<path style="fill:#8e9091; stroke:none;" d="M19 34L20 35L19 34z"/>
<path style="fill:#536a71; stroke:none;" d="M20 34L21 35L20 34z"/>
<path style="fill:#8e9091; stroke:none;" d="M46 34L47 35L46 34M21 35L22 36L21 35M44 35L45 36L44 35M17 36L32 58L33 58C32.1532 44.8473 29.4591 41.817 17 36z"/>
<path style="fill:#536a71; stroke:none;" d="M23 36L24 37L23 36M42 36L43 37L42 36M48 36L49 37L48 36M25 37L26 38L25 37z"/>
<path style="fill:#8e9091; stroke:none;" d="M41 37L42 38L41 37M46 37L46 38L49 38L49 37L46 37z"/>
<path style="fill:#282929; stroke:none;" d="M47 37L48 38L47 37z"/>
<path style="fill:#536a71; stroke:none;" d="M19 38L20 39L19 38z"/>
<path style="fill:#8e9091; stroke:none;" d="M26 38L27 39L26 38M39 38L40 39L39 38M44 38L45 39L44 38z"/>
<path style="fill:#282929; stroke:none;" d="M33 57L47 38C36.1205 41.9603 33 45.7728 33 57z"/>
<path style="fill:#8e9091; stroke:none;" d="M28 39L29 40L28 39z"/>
<path style="fill:#536a71; stroke:none;" d="M37 39L38 40L37 39z"/>
<path style="fill:#8e9091; stroke:none;" d="M42 39L43 40L42 39z"/>
<path style="fill:#536a71; stroke:none;" d="M43 39L44 40L43 39M46 39L47 40L46 39M30 40L31 41L30 40M35 40L36 41L35 40M41 40L42 41L41 40M0.333333 41.6667L0.666667 42.3333L0.333333 41.6667z"/>
<path style="fill:#8e9091; stroke:none;" d="M31 41L32 42L31 41z"/>
<path style="fill:#536a71; stroke:none;" d="M32 41L33 42L32 41z"/>
<path style="fill:#8e9091; stroke:none;" d="M34 41L35 42L34 41M39 41L40 42L39 41M45 41L46 42L45 41z"/>
<path style="fill:#536a71; stroke:none;" d="M63 41L63 44L64 44L63 41z"/>
<path style="fill:#8e9091; stroke:none;" d="M37 42L38 43L37 42z"/>
<path style="fill:#536a71; stroke:none;" d="M44 42L45 43L44 42M36 43L37 44L36 43M1 44L3 47L1 44z"/>
<path style="fill:#8e9091; stroke:none;" d="M34 44L35 45L34 44z"/>
<path style="fill:#536a71; stroke:none;" d="M62 44L61 47L62 44z"/>
<path style="fill:#8e9091; stroke:none;" d="M42 45L43 46L42 45z"/>
<path style="fill:#536a71; stroke:none;" d="M0 46L0 64L18 64L18 63L13 61L15 59C7.58823 57.0326 4.8032 51.3931 0 46M41 46L42 47L41 46M63 46L59 50L56 54L49 59L51 61L44 62L44 63L64 64L63 46M3 48L4 49L3 48z"/>
<path style="fill:#8e9091; stroke:none;" d="M40 48L41 49L40 48z"/>
<path style="fill:#536a71; stroke:none;" d="M60 48L61 49L60 48z"/>
<path style="fill:#8e9091; stroke:none;" d="M39 49L40 50L39 49z"/>
<path style="fill:#536a71; stroke:none;" d="M4 50L7 53L4 50M38 50L39 51L38 50z"/>
<path style="fill:#8e9091; stroke:none;" d="M60 50L61 51L60 50z"/>
<path style="fill:#536a71; stroke:none;" d="M58 51L57 53L58 51z"/>
<path style="fill:#8e9091; stroke:none;" d="M37 52L38 53L37 52z"/>
<path style="fill:#536a71; stroke:none;" d="M36 53L37 54L36 53z"/>
<path style="fill:#8e9091; stroke:none;" d="M55 54L56 55L55 54M9 55L10 56L9 55M35 55L36 56L35 55M54 55L55 56L54 55z"/>
<path style="fill:#9173c1; stroke:none;" d="M10 56L11 57L10 56z"/>
<path style="fill:#536a71; stroke:none;" d="M32 56L33 57L32 56z"/>
<path style="fill:#8e9091; stroke:none;" d="M34 56L35 57L34 56z"/>
<path style="fill:#536a71; stroke:none;" d="M53 56L54 57L53 56M11 57L12 58L11 57M33 57L34 58L33 57M52 57L53 58L52 57z"/>
<path style="fill:#8e9091; stroke:none;" d="M12 59L13 60L12 59M51 59L52 60L51 59z"/>
<path style="fill:#536a71; stroke:none;" d="M15 60L18 62L18 61L15 60M48 60L46 61L46 62L48 60M18 62L18 63L23 64L23 63L18 62z"/>
<path style="fill:#8e9091; stroke:none;" d="M20 62L21 63L20 62z"/>
<path style="fill:#536a71; stroke:none;" d="M41 63L41 64L44 64L41 63z"/>
<path style="fill:#9173c1; stroke:none;" d="M45 63L46 64L45 63z"/>
</svg>
