<?xml version="1.0" standalone="no"?>
<!DOCTYPE svg PUBLIC "-//W3C//DTD SVG 20010904//EN"
 "http://www.w3.org/TR/2001/REC-SVG-20010904/DTD/svg10.dtd">
<svg version="1.0" xmlns="http://www.w3.org/2000/svg"
 width="64.000000pt" height="64.000000pt" viewBox="0 0 64.000000 64.000000"
 preserveAspectRatio="xMidYMid meet">

<g transform="translate(0.000000,64.000000) scale(0.100000,-0.100000)"
fill="#000000" stroke="none">
<path d="M223 622 c-109 -39 -178 -112 -210 -221 -29 -102 4 -228 82 -306 122
-121 328 -121 450 0 91 92 118 241 64 356 -69 146 -241 223 -386 171z m213
-32 c59 -25 119 -83 148 -143 37 -73 37 -181 0 -254 -30 -61 -89 -118 -152
-145 -66 -30 -191 -22 -254 15 -97 57 -150 147 -150 257 0 212 214 353 408
270z"/>
<path d="M238 580 c-36 -11 -98 -49 -98 -61 0 -12 -3 -13 64 21 80 41 151 41
230 1 58 -29 86 -27 40 4 -63 41 -166 56 -236 35z"/>
<path d="M95 474 c-60 -92 -58 -232 5 -314 32 -42 32 -16 0 45 -41 79 -42 149
0 231 34 67 33 64 21 64 -5 0 -16 -12 -26 -26z"/>
<path d="M510 496 c0 -2 14 -30 30 -61 41 -79 42 -151 1 -229 -32 -60 -26 -88
7 -34 52 87 55 202 8 283 -15 25 -31 45 -36 45 -6 0 -10 -2 -10 -4z"/>
<path d="M142 118 c3 -7 27 -24 54 -38 39 -20 63 -25 124 -25 74 1 115 13 164
50 36 28 10 24 -49 -6 -54 -27 -67 -30 -127 -26 -48 3 -79 12 -112 31 -50 29
-60 32 -54 14z"/>
</g>
</svg>
